<svg width="128" height="107" viewBox="0 0 128 107" fill="none" xmlns="http://www.w3.org/2000/svg">
<path d="M26.8052 45.9999C26.8052 55.9411 34.864 63.9999 44.8052 63.9999L71.8052 63.9999C74.5666 63.9999 76.8052 61.7614 76.8052 58.9999L76.8052 24.9999C76.8052 19.4771 72.328 14.9999 66.8052 14.9999L31.8052 14.9999C29.0437 14.9999 26.8052 17.2385 26.8052 19.9999L26.8052 45.9999Z" fill="#FFF1DA"/>
<path d="M75.0772 59.9595C73.733 60.1152 72.4419 60.5534 71.2839 61.2465C68.2637 62.9983 66.6209 65.8322 67.6148 67.5757C68.6087 69.3193 71.8627 69.3117 74.8829 67.5599C76.0591 66.8987 77.0839 65.9939 77.8944 64.9016C78.2691 64.3716 78.2973 63.6566 77.9666 63.0781L76.6754 60.8131C76.3467 60.2331 75.7195 59.8985 75.0772 59.9595Z" fill="#D5D6DB"/>
<path d="M67.276 32.9614C66.3013 33.0745 65.365 33.3925 64.5253 33.8951C62.3358 35.1651 61.1438 37.2199 61.8639 38.4831C62.5839 39.7464 64.9444 39.7407 67.1337 38.4709C67.9865 37.9911 68.7295 37.3347 69.3173 36.5425C69.5886 36.1584 69.609 35.6403 69.3692 35.2208L68.4343 33.5808C68.1963 33.1604 67.7418 32.9174 67.276 32.9614Z" fill="#D5D6DB"/>
<path d="M54.432 32.7202C54.2105 32.6666 53.98 32.6998 53.7853 32.8127L48.6514 35.7837C48.2219 36.0313 48.0793 36.5935 48.3332 37.0396C48.3913 37.1418 48.4677 37.2325 48.5581 37.3063L62.3898 48.658L79.5087 38.7513L54.432 32.7202Z" fill="#029BC5"/>
<path d="M111.146 35.5221L63.1857 64.5391L34.3406 73.9732L19.4235 75.3935L17.5661 71.9943L97.5775 24.766C99.9615 23.3511 102.67 22.6444 105.43 22.7178C106.639 22.7573 107.842 22.9588 109.013 23.3172C110.05 23.6258 111.044 24.0904 111.966 24.6971C112.996 25.3825 114.894 25.6928 115.575 26.8805C115.577 26.879 117.335 32.154 111.146 35.5221Z" fill="#E1E6E9"/>
<path d="M62.5364 57.8119L43.4181 92.5307C43.183 93.0227 43.3784 93.6319 43.8543 93.8915C44.1463 94.0509 44.4914 94.0465 44.7713 93.8802L49.993 90.7818C50.9973 90.1856 51.8692 89.3768 52.5548 88.4056L90.8122 40.1403L62.5364 57.8119Z" fill="#029BC5"/>
<path d="M9.90228 57.1592C9.54677 56.991 9.13728 57.0047 8.803 57.1957L4.60587 59.5937C4.03396 59.9201 3.84483 60.6604 4.18326 61.2474C4.24773 61.359 4.32869 61.4602 4.42355 61.547L17.3644 73.4275L29.7388 66.5304L9.90228 57.1592Z" fill="#029BC5"/>
<path d="M20.6875 74.3832L14.5198 84.0211C14.4292 84.1594 14.4644 84.352 14.5984 84.4511C14.695 84.5225 14.8212 84.528 14.9197 84.4651L18.9622 82.0581C18.9936 82.0394 19.0215 82.0145 19.0441 81.9849L28.1812 69.9268L20.6875 74.3832Z" fill="#029BC5"/>
<path d="M108.822 23.0105C107.643 22.6628 106.431 22.4679 105.214 22.4299C104.133 24.0725 103.498 25.9902 103.369 27.9919C103.376 28.398 103.701 28.7305 104.095 28.7346C104.217 28.7357 104.337 28.7045 104.443 28.6437L111.796 24.3496C110.868 23.7607 109.866 23.3098 108.822 23.0105Z" fill="#029BC5"/>
<path d="M92.3321 31.1879L96.9396 28.6284L101.926 37.0748L97.3182 39.6343L92.3321 31.1879Z" fill="#D5D6DB"/>
<path d="M89.1335 34.7529C88.5753 35.0634 88.3918 35.7754 88.7239 36.3431L89.2621 37.263C89.6128 37.8198 90.3404 38.004 90.8873 37.6744C91.4078 37.3605 91.5808 36.6897 91.2828 36.1391L90.7447 35.2193C90.4128 34.652 89.6917 34.4431 89.1335 34.7529Z" fill="#3A556A"/>
<path d="M84.6691 37.5254C84.1109 37.8358 83.9274 38.5478 84.2595 39.1156L84.7977 40.0354C85.1484 40.5922 85.876 40.7765 86.4229 40.4469C86.9434 40.133 87.1164 39.4621 86.8184 38.9116L86.2803 37.9917C85.9481 37.4246 85.2271 37.2157 84.6691 37.5254Z" fill="#3A556A"/>
<path d="M80.2033 40.2986C79.6458 40.6096 79.463 41.3208 79.7949 41.8881L80.333 42.8079C80.6838 43.3647 81.4114 43.549 81.9583 43.2194C82.4788 42.9054 82.6518 42.2346 82.3538 41.6841L81.8156 40.7643C81.4835 40.1965 80.7617 39.988 80.2033 40.2986Z" fill="#3A556A"/>
<path d="M75.739 43.071C75.1815 43.382 74.9987 44.0932 75.3306 44.6605L75.8687 45.5804C76.2195 46.1372 76.9471 46.3214 77.494 45.9918C78.0145 45.6779 78.1875 45.007 77.8895 44.4565L77.3513 43.5366C77.0189 42.969 76.2972 42.7605 75.739 43.071Z" fill="#3A556A"/>
<path d="M71.2746 45.8433C70.717 46.1542 70.5342 46.8652 70.8661 47.4323L71.4043 48.3519C71.7361 48.9188 72.4572 49.127 73.015 48.8169C73.5727 48.5069 73.7559 47.796 73.4242 47.2291L72.886 46.3095C72.5549 45.7422 71.834 45.5333 71.2758 45.8426C71.2753 45.8429 71.2751 45.843 71.2746 45.8433Z" fill="#3A556A"/>
<path d="M66.8102 48.6157C66.2526 48.9266 66.0698 49.6376 66.4017 50.2048L66.9399 51.1244C67.2717 51.6912 67.9928 51.8995 68.5506 51.5894C69.1083 51.2794 69.2915 50.5685 68.9598 50.0016L68.4216 49.082C68.0905 48.5147 67.3696 48.3057 66.8114 48.6151C66.8109 48.6153 66.8105 48.6156 66.8102 48.6157Z" fill="#3A556A"/>
<path d="M62.3456 51.3883C61.788 51.6992 61.6052 52.4102 61.9371 52.9773L62.4753 53.8969C62.8078 54.4634 63.5292 54.6705 64.0863 54.3599C64.6424 54.0498 64.8253 53.3404 64.4949 52.7743L63.9567 51.8547C63.625 51.2874 62.9039 51.0786 62.3456 51.3883Z" fill="#3A556A"/>
<path d="M57.881 54.1608C57.3234 54.4717 57.1406 55.1828 57.4725 55.7499L58.0107 56.6695C58.3432 57.236 59.0646 57.4431 59.6217 57.1325C60.1779 56.8223 60.3607 56.1129 60.0303 55.5468L59.4921 54.6272C59.1604 54.0599 58.4393 53.8511 57.881 54.1608Z" fill="#3A556A"/>
<path d="M53.4167 56.9332C52.8591 57.2441 52.6763 57.9551 53.0082 58.5223L53.5464 59.4418C53.8789 60.0083 54.6003 60.2154 55.1574 59.9048C55.7136 59.5947 55.8964 58.8853 55.566 58.3192L55.0278 57.3996C54.6959 56.8325 53.9748 56.6237 53.4167 56.9332Z" fill="#3A556A"/>
<path d="M48.9509 59.7065C48.3931 60.0165 48.2099 60.7274 48.5417 61.2944L48.5424 61.2956L49.0806 62.2152C49.4131 62.7817 50.1345 62.9888 50.6916 62.6781C51.2477 62.368 51.4306 61.6586 51.1002 61.0925L50.562 60.1729C50.2303 59.6056 49.5092 59.3968 48.9509 59.7065Z" fill="#3A556A"/>
<path d="M44.4877 62.4782C43.9299 62.7882 43.7467 63.4991 44.0785 64.066L44.0792 64.0672L44.6174 64.9868C44.9499 65.5533 45.6713 65.7604 46.2284 65.4497C46.7846 65.1396 46.9674 64.4302 46.637 63.8641L46.0988 62.9445C45.7669 62.3774 45.0458 62.1686 44.4877 62.4782Z" fill="#3A556A"/>
</svg>
